<svg width="338.4" height="432" xmlns="http://www.w3.org/2000/svg">

 <g>
  <title>background</title>
  <rect fill="none" id="canvas_background" height="402" width="582" y="-1" x="-1"/>
 </g>
 <g>
  <title>Layer 1</title>
  <g id="svg_1">
   <path fill="#ffffff" id="svg_2" d="m119.5,91.4c1,3.6 2.2,6.9 3.9,10c4.1,7.6 10.1,13.6 17.9,18.2c4,2.3 8.3,4.1 13.1,5.2l0,157.7c0,19.3 15.7,35 35,35l0,-226.1l-69.9,0z"/>
   <path fill="#ffffff" id="svg_3" d="m243.2,213.2l42.3,-72l-25.6,0c-5.7,0 -10.9,3 -13.8,7.9l-40.1,68.3l0,59.2l19,-32.3l41.9,86.6c2.9,6 9,9.8 15.6,9.8l22.4,0l-61.7,-127.5z"/>
  </g>
  <g id="svg_4">
   <path fill="#ffffff" id="svg_5" d="m137.9,264.9l-35,0c-0.5,3.9 -1.8,7.8 -3.9,11.7c-2.2,3.9 -6.6,5.8 -13.2,5.8c-5.3,0 -9.4,-1.5 -12.5,-4.5c-3.1,-3 -4.6,-7.2 -4.6,-12.7l0,-71.1c0,-6.6 1.5,-11.6 4.6,-14.9c3.1,-3.3 7.3,-5 12.5,-5c5.3,0 9.4,1.7 12.5,5c3.1,3.3 4.6,8.5 4.6,15.6l35,0c0,-8 -1.2,-15.5 -3.6,-22.3c-2.4,-6.9 -5.8,-12.8 -10.3,-17.7c-4.5,-4.9 -10,-8.8 -16.5,-11.5c-6.5,-2.7 -13.8,-4.1 -21.8,-4.1c-10.8,0 -20,2.3 -27.8,6.9c-7.8,4.6 -13.7,10.6 -17.9,18.2c-2.5,4.6 -4.2,9.8 -5.2,15.8c-0.9,6 -1.4,12.5 -1.4,19.6l0,57.3c0,7.1 0.5,13.6 1.4,19.6c0.9,6 2.6,11.2 5.2,15.8c4.1,7.6 10.1,13.6 17.9,18.2c7.8,4.6 17.1,6.9 27.8,6.9c8,0 15.2,-1.4 21.6,-4.1c1.1,-0.5 2.2,-1 3.2,-1.6l27.3,-46.5c0.1,-0.2 0.1,-0.3 0.1,-0.4z"/>
  </g>
 </g>
</svg>